# xmcd CD database file
#
# Track frame offsets:
#	182
#	12980
#	29607
#	44067
#	62525
#	78715
#	94745
#	109880
#	125912
#	137152
#
# Disc length: 2042 seconds
#
# Revision: 4
# Processed by: cddbd v1.5.2PL0 Copyright (c) Steve Scherf et al.
# Submitted via: CDex 1.70beta2
#
DISCID=9207f80a
DTITLE=Various Artist - Billboard Top Country Hits - 1990
DYEAR=1993
DGENRE=Country
TTITLE0=Holly Dunn - You Really Had Me Going
TTITLE1=Shenandoah - Next To You, Next To Me
TTITLE2=Mike Reid - Walk On Faith
TTITLE3=Randy Travis - Hard Rock Bottom Of Your Heart
TTITLE4=Lorrie Morgan - Five Minutes
TTITLE5=Alabama - Jukebox In My Mind
TTITLE6=Joe Diffie - Home
TTITLE7=Paul Overstreet - Daddy's Come Around
TTITLE8=Patty Loveless - Chains
TTITLE9=Dan Seals - Good Times
EXTD=YEAR: 1993
EXTT0=
EXTT1=
EXTT2=
EXTT3=
EXTT4=
EXTT5=
EXTT6=
EXTT7=
EXTT8=
EXTT9=
PLAYORDER=
